<svg width="244" height="71" viewBox="0 0 244 71" fill="none" xmlns="http://www.w3.org/2000/svg">
<g clip-path="url(#clip0_108_742)">
<path d="M6.968 21.128H14.072V53H6.968V21.128ZM25.592 27.208C23.288 27.208 21.304 27.6987 19.64 28.68C18.0187 29.6613 16.7173 30.856 15.736 32.264C14.7547 33.672 14.072 35.0373 13.688 36.36L13.624 32.776C13.6667 32.3067 13.816 31.6027 14.072 30.664C14.328 29.6827 14.712 28.616 15.224 27.464C15.7787 26.312 16.504 25.2027 17.4 24.136C18.3387 23.0267 19.4693 22.1307 20.792 21.448C22.1573 20.7653 23.7573 20.424 25.592 20.424V27.208ZM55.032 42.504H61.88C61.5387 44.68 60.6853 46.6213 59.32 48.328C57.9973 49.992 56.184 51.3147 53.88 52.296C51.576 53.2347 48.824 53.704 45.624 53.704C41.9973 53.704 38.7547 53.0427 35.896 51.72C33.0373 50.3547 30.7973 48.4347 29.176 45.96C27.5547 43.4853 26.744 40.5413 26.744 37.128C26.744 33.7573 27.5333 30.8133 29.112 28.296C30.6907 25.7787 32.8667 23.8373 35.64 22.472C38.456 21.1067 41.6987 20.424 45.368 20.424C49.1653 20.424 52.3227 21.1067 54.84 22.472C57.4 23.7947 59.2987 25.8 60.536 28.488C61.7733 31.1333 62.2853 34.4827 62.072 38.536H33.976C34.1893 40.328 34.7653 41.9493 35.704 43.4C36.6853 44.808 38.008 45.9173 39.672 46.728C41.336 47.496 43.2773 47.88 45.496 47.88C47.9707 47.88 50.04 47.3893 51.704 46.408C53.4107 45.4267 54.52 44.1253 55.032 42.504ZM45.176 26.184C42.2747 26.184 39.8853 26.9093 38.008 28.36C36.1307 29.768 34.9147 31.5813 34.36 33.8H54.904C54.7333 31.4107 53.7733 29.5547 52.024 28.232C50.2747 26.8667 47.992 26.184 45.176 26.184Z" fill="#E51636"/>
<path d="M80.056 48.072C77.0693 48.072 74.36 47.5387 71.928 46.472C69.5387 45.4053 67.64 43.848 66.232 41.8C64.8667 39.752 64.184 37.2987 64.184 34.44C64.184 31.5813 64.8453 29.1067 66.168 27.016C67.5333 24.9253 69.4107 23.304 71.8 22.152C74.232 21 76.984 20.424 80.056 20.424C80.952 20.424 81.8053 20.488 82.616 20.616C83.4693 20.744 84.28 20.9147 85.048 21.128L99.96 21.192V27.144C97.912 27.1867 95.8427 26.9093 93.752 26.312C91.704 25.672 89.8907 25.0107 88.312 24.328L88.12 23.944C89.5707 24.6693 90.872 25.5653 92.024 26.632C93.2187 27.656 94.1573 28.8293 94.84 30.152C95.5227 31.4747 95.864 32.968 95.864 34.632C95.864 37.448 95.1813 39.8587 93.816 41.864C92.4933 43.8693 90.6373 45.4053 88.248 46.472C85.9013 47.5387 83.1707 48.072 80.056 48.072ZM90.296 65.992V64.52C90.296 62.4293 89.6773 60.9573 88.44 60.104C87.2027 59.2507 85.4747 58.824 83.256 58.824H74.616C72.9093 58.824 71.4373 58.6747 70.2 58.376C69.0053 58.12 68.0453 57.7147 67.32 57.16C66.5947 56.648 66.0613 56.0293 65.72 55.304C65.3787 54.6213 65.208 53.8533 65.208 53C65.208 51.2933 65.72 50.0133 66.744 49.16C67.8107 48.3067 69.1973 47.752 70.904 47.496C72.6533 47.24 74.488 47.1973 76.408 47.368L80.056 48.072C77.5387 48.1573 75.6187 48.392 74.296 48.776C73.016 49.1173 72.376 49.8213 72.376 50.888C72.376 51.528 72.632 52.04 73.144 52.424C73.656 52.808 74.3813 53 75.32 53H84.408C87.0107 53 89.2933 53.2987 91.256 53.896C93.2187 54.536 94.7333 55.5813 95.8 57.032C96.9093 58.5253 97.464 60.552 97.464 63.112V65.992H90.296ZM80.056 42.504C81.7627 42.504 83.2773 42.184 84.6 41.544C85.9227 40.904 86.968 39.9867 87.736 38.792C88.504 37.5973 88.888 36.1467 88.888 34.44C88.888 32.7333 88.504 31.2613 87.736 30.024C86.968 28.7867 85.9227 27.848 84.6 27.208C83.2773 26.568 81.7627 26.248 80.056 26.248C78.392 26.248 76.8773 26.568 75.512 27.208C74.1893 27.848 73.144 28.7867 72.376 30.024C71.608 31.2187 71.224 32.6907 71.224 34.44C71.224 36.1467 71.608 37.5973 72.376 38.792C73.144 39.9867 74.1893 40.904 75.512 41.544C76.8347 42.184 78.3493 42.504 80.056 42.504ZM136.317 53H129.213V21.128H136.317V53ZM129.597 37.832L129.661 39.88C129.575 40.4347 129.383 41.2667 129.085 42.376C128.829 43.4853 128.381 44.7013 127.741 46.024C127.143 47.304 126.333 48.5413 125.309 49.736C124.327 50.888 123.09 51.848 121.597 52.616C120.103 53.3413 118.29 53.704 116.156 53.704C114.62 53.704 113.063 53.4907 111.484 53.064C109.948 52.68 108.541 52.0187 107.26 51.08C106.023 50.1413 105.021 48.8613 104.253 47.24C103.484 45.6187 103.1 43.5707 103.1 41.096V21.128H110.205V39.752C110.205 41.7573 110.525 43.336 111.165 44.488C111.847 45.5973 112.786 46.3867 113.981 46.856C115.175 47.3253 116.562 47.56 118.141 47.56C120.402 47.56 122.322 47.048 123.901 46.024C125.479 45 126.738 43.7413 127.677 42.248C128.658 40.712 129.298 39.24 129.597 37.832ZM155.811 53.704C152.91 53.704 150.243 53 147.811 51.592C145.422 50.184 143.502 48.2427 142.051 45.768C140.643 43.2507 139.939 40.3707 139.939 37.128C139.939 33.8 140.664 30.8987 142.115 28.424C143.566 25.9067 145.528 23.944 148.003 22.536C150.478 21.128 153.251 20.424 156.323 20.424C159.736 20.424 162.446 21.1707 164.451 22.664C166.456 24.1573 167.886 26.1627 168.739 28.68C169.592 31.1973 170.019 34.0133 170.019 37.128C170.019 38.8773 169.763 40.7333 169.251 42.696C168.739 44.616 167.928 46.408 166.819 48.072C165.752 49.736 164.302 51.1013 162.467 52.168C160.675 53.192 158.456 53.704 155.811 53.704ZM157.987 47.816C160.376 47.816 162.403 47.368 164.067 46.472C165.774 45.5333 167.054 44.2533 167.907 42.632C168.803 41.0107 169.251 39.176 169.251 37.128C169.251 34.8667 168.803 32.9467 167.907 31.368C167.011 29.7467 165.731 28.5093 164.067 27.656C162.403 26.76 160.376 26.312 157.987 26.312C154.574 26.312 151.928 27.3147 150.051 29.32C148.174 31.3253 147.235 33.928 147.235 37.128C147.235 39.2187 147.683 41.0747 148.579 42.696C149.518 44.3173 150.798 45.576 152.419 46.472C154.04 47.368 155.896 47.816 157.987 47.816ZM169.251 21.128H176.419V53H169.763C169.763 53 169.72 52.5947 169.635 51.784C169.55 50.9733 169.464 49.992 169.379 48.84C169.294 47.6453 169.251 46.5147 169.251 45.448V21.128ZM181.668 21.128H188.772V53H181.668V21.128ZM200.292 27.208C197.988 27.208 196.004 27.6987 194.34 28.68C192.719 29.6613 191.417 30.856 190.436 32.264C189.455 33.672 188.772 35.0373 188.388 36.36L188.324 32.776C188.367 32.3067 188.516 31.6027 188.772 30.664C189.028 29.6827 189.412 28.616 189.924 27.464C190.479 26.312 191.204 25.2027 192.1 24.136C193.039 23.0267 194.169 22.1307 195.492 21.448C196.857 20.7653 198.457 20.424 200.292 20.424V27.208ZM217.316 53.704C214.372 53.704 211.684 53 209.252 51.592C206.863 50.184 204.964 48.2427 203.556 45.768C202.148 43.2507 201.444 40.3707 201.444 37.128C201.444 33.8 202.127 30.8987 203.492 28.424C204.9 25.9067 206.777 23.944 209.124 22.536C211.513 21.128 214.244 20.424 217.316 20.424C220.004 20.424 222.265 20.872 224.1 21.768C225.935 22.6213 227.385 23.816 228.452 25.352C229.519 26.8453 230.287 28.5947 230.756 30.6C231.268 32.6053 231.524 34.7813 231.524 37.128C231.524 38.8773 231.268 40.7333 230.756 42.696C230.244 44.616 229.433 46.408 228.324 48.072C227.257 49.736 225.807 51.1013 223.972 52.168C222.18 53.192 219.961 53.704 217.316 53.704ZM219.492 47.816C221.881 47.816 223.908 47.368 225.572 46.472C227.279 45.5333 228.559 44.2533 229.412 42.632C230.308 41.0107 230.756 39.176 230.756 37.128C230.756 34.8667 230.308 32.9467 229.412 31.368C228.516 29.7467 227.236 28.488 225.572 27.592C223.908 26.696 221.881 26.248 219.492 26.248C216.079 26.248 213.433 27.272 211.556 29.32C209.679 31.3253 208.74 33.928 208.74 37.128C208.74 39.2187 209.188 41.0747 210.084 42.696C211.023 44.3173 212.303 45.576 213.924 46.472C215.545 47.368 217.401 47.816 219.492 47.816ZM230.756 8.328H237.924V53H231.268C231.183 52.0187 231.076 50.8027 230.948 49.352C230.82 47.9013 230.756 46.6 230.756 45.448V8.328Z" fill="#203040"/>
</g>
<defs>
<clipPath id="clip0_108_742">
<rect width="244" height="71" fill="white"/>
</clipPath>
</defs>
</svg>
